<svg width="122" height="32" viewBox="0 0 122 32" fill="none" xmlns="http://www.w3.org/2000/svg">
<path d="M112.969 12.1216V25.6973H111.03V12.1216H112.969Z" fill="#F2F2F2" stroke="#F2F2F2" stroke-width="1.93939"/>
<path d="M27.588 26.4844V19.2699C27.588 18.3777 27.6171 17.4662 27.6753 16.5353C27.7529 15.585 27.8305 14.7899 27.908 14.1499C27.9856 13.5099 28.0341 13.1026 28.0535 12.9281H27.9371L24.2426 26.4844H19.2099L15.4863 12.9572H15.3699C15.3893 13.1317 15.4378 13.539 15.5154 14.179C15.6123 14.7996 15.6996 15.585 15.7772 16.5353C15.8548 17.4662 15.8936 18.3777 15.8936 19.2699V26.4844H9.98812V6.46991H19.0644L22.0899 18.019H22.2063L25.2026 6.46991H33.9589V26.4844H27.588ZM47.8159 6.12082C51.268 6.12082 53.9347 7.00325 55.8159 8.76809C57.6971 10.5329 58.6377 13.1026 58.6377 16.4771C58.6377 19.8517 57.6971 22.4214 55.8159 24.1862C53.9347 25.951 51.268 26.8335 47.8159 26.8335C44.3638 26.8335 41.6972 25.9607 39.8159 24.2153C37.9541 22.4505 37.0232 19.8711 37.0232 16.4771C37.0232 13.0832 37.9541 10.5135 39.8159 8.76809C41.6972 7.00325 44.3638 6.12082 47.8159 6.12082ZM47.8159 10.9208C46.439 10.9208 45.3917 11.3378 44.6741 12.1717C43.9565 13.0056 43.5978 14.1305 43.5978 15.5462V17.408C43.5978 18.8238 43.9565 19.9486 44.6741 20.7826C45.3917 21.6165 46.439 22.0335 47.8159 22.0335C49.1929 22.0335 50.2401 21.6165 50.9577 20.7826C51.6947 19.9486 52.0632 18.8238 52.0632 17.408V15.5462C52.0632 14.1305 51.6947 13.0056 50.9577 12.1717C50.2401 11.3378 49.1929 10.9208 47.8159 10.9208ZM62.0997 6.46991H68.5288V21.3644H78.7978V26.4844H62.0997V6.46991ZM90.9691 6.12082C94.4212 6.12082 97.0879 7.00325 98.9691 8.76809C100.85 10.5329 101.791 13.1026 101.791 16.4771C101.791 19.8517 100.85 22.4214 98.9691 24.1862C97.0879 25.951 94.4212 26.8335 90.9691 26.8335C87.517 26.8335 84.8504 25.9607 82.9692 24.2153C81.1074 22.4505 80.1765 19.8711 80.1765 16.4771C80.1765 13.0832 81.1074 10.5135 82.9692 8.76809C84.8504 7.00325 87.517 6.12082 90.9691 6.12082ZM90.9691 10.9208C89.5922 10.9208 88.5449 11.3378 87.8273 12.1717C87.1098 13.0056 86.751 14.1305 86.751 15.5462V17.408C86.751 18.8238 87.1098 19.9486 87.8273 20.7826C88.5449 21.6165 89.5922 22.0335 90.9691 22.0335C92.3461 22.0335 93.3934 21.6165 94.1109 20.7826C94.8479 19.9486 95.2164 18.8238 95.2164 17.408V15.5462C95.2164 14.1305 94.8479 13.0056 94.1109 12.1717C93.3934 11.3378 92.3461 10.9208 90.9691 10.9208Z" fill="#F2F2F2"/>
<rect y="6.30273" width="6.303" height="19.8787" fill="#F2F2F2"/>
<rect width="6.303" height="4.84846" fill="#F2F2F2"/>
<rect x="102.787" y="1.93945" width="18.4242" height="8.24239" rx="0.969693" fill="#F2F2F2"/>
<path d="M113.22 3.82873C113.698 4.14441 114.061 4.60538 114.256 5.14347C114.452 5.68157 114.469 6.26822 114.305 6.8167C114.141 7.36517 113.805 7.84636 113.346 8.18909C112.888 8.53183 112.331 8.71793 111.759 8.71988C111.186 8.72183 110.628 8.53952 110.168 8.19991C109.707 7.8603 109.368 7.38142 109.2 6.83408C109.032 6.28673 109.045 5.69997 109.237 5.16056C109.429 4.62115 109.789 4.15772 110.264 3.83879" stroke="#2F2F59" stroke-width="0.484846"/>
<rect x="111.515" y="3.39355" width="0.484846" height="3.87877" fill="#2F2F59"/>
<rect x="110.06" width="3.87877" height="0.969693" fill="#F2F2F2"/>
</svg>
