<svg width="25" height="25" viewBox="0 0 25 25" fill="none" xmlns="http://www.w3.org/2000/svg">
<g opacity="0.7">
<path d="M3.04167 25H7.20833C7.78333 25 8.25 24.5333 8.25 23.9583V19.7917C8.25 19.2167 7.78333 18.75 7.20833 18.75H3.04167C2.46667 18.75 2 19.2167 2 19.7917V23.9583C2 24.5333 2.46667 25 3.04167 25Z" fill="white"/>
<path d="M3.04167 15.625H7.20833C7.78333 15.625 8.25 15.1583 8.25 14.5833V10.4167C8.25 9.84167 7.78333 9.375 7.20833 9.375H3.04167C2.46667 9.375 2 9.84167 2 10.4167V14.5833C2 15.1583 2.46667 15.625 3.04167 15.625Z" fill="white"/>
<path d="M3.04167 6.25H7.20833C7.78333 6.25 8.25 5.78333 8.25 5.20833V1.04167C8.25 0.466667 7.78333 0 7.20833 0H3.04167C2.46667 0 2 0.466667 2 1.04167V5.20833C2 5.78333 2.46667 6.25 3.04167 6.25Z" fill="white"/>
</g>
</svg>
