<svg width="24" height="27" viewBox="0 0 24 27" fill="none" xmlns="http://www.w3.org/2000/svg">
<path d="M8.13139 27.5051C3.96415 27.482 0.51709 19.2791 0.51709 15.1015C0.51709 8.27745 5.82588 6.78349 7.87185 6.78349C8.79388 6.78349 9.77842 7.13264 10.6468 7.44161C11.2541 7.65714 11.8821 7.87962 12.2314 7.87962C12.4404 7.87962 12.9331 7.69036 13.3681 7.5243C14.2958 7.16819 15.4501 6.72559 16.7943 6.72559C16.7967 6.72559 16.8 6.72559 16.8023 6.72559C17.806 6.72559 20.8494 6.938 22.6791 9.58759L23.1077 10.2086L22.4909 10.6575C21.6097 11.2986 20.0019 12.4681 20.0019 14.7848C20.0019 17.5286 21.8227 18.5839 22.6975 19.0914C23.0837 19.3154 23.4834 19.5464 23.4834 20.0516C23.4834 20.3814 20.7533 27.4642 16.7887 27.4642C15.8186 27.4642 15.1329 27.183 14.528 26.9351C13.916 26.684 13.3881 26.4678 12.5157 26.4678C12.0735 26.4678 11.5143 26.6694 10.9223 26.8834C10.1133 27.1745 9.19764 27.5051 8.15863 27.5051H8.13139Z" fill="black"/>
<path d="M17.2144 0C17.3177 3.58994 14.6552 6.08048 11.9959 5.92428C11.5577 3.05938 14.6549 0 17.2144 0Z" fill="black"/>
</svg>
