<svg width="24" height="27" viewBox="0 0 24 27" fill="none" xmlns="http://www.w3.org/2000/svg">
<path d="M8.13115 27.5051C3.96391 27.482 0.516846 19.2791 0.516846 15.1015C0.516846 8.27745 5.82563 6.78349 7.8716 6.78349C8.79363 6.78349 9.77817 7.13264 10.6466 7.44161C11.2538 7.65714 11.8818 7.87962 12.2311 7.87962C12.4402 7.87962 12.9329 7.69036 13.3679 7.5243C14.2955 7.16819 15.4499 6.72559 16.7941 6.72559C16.7965 6.72559 16.7997 6.72559 16.8021 6.72559C17.8058 6.72559 20.8492 6.938 22.6788 9.58759L23.1074 10.2086L22.4906 10.6575C21.6094 11.2986 20.0016 12.4681 20.0016 14.7848C20.0016 17.5286 21.8225 18.5839 22.6973 19.0914C23.0834 19.3154 23.4831 19.5464 23.4831 20.0516C23.4831 20.3814 20.753 27.4642 16.7885 27.4642C15.8184 27.4642 15.1326 27.183 14.5278 26.9351C13.9158 26.684 13.3878 26.4678 12.5154 26.4678C12.0732 26.4678 11.5141 26.6694 10.9221 26.8834C10.1131 27.1745 9.19739 27.5051 8.15838 27.5051H8.13115Z" fill="white"/>
<path d="M17.2139 0C17.3172 3.58994 14.6547 6.08048 11.9954 5.92428C11.5572 3.05938 14.6544 0 17.2139 0Z" fill="white"/>
</svg>
