<svg width="16" height="16" viewBox="0 0 16 16" fill="none" xmlns="http://www.w3.org/2000/svg">
<path d="M7.97901 9.58301C12.2936 9.58301 15.7915 11.2153 15.7915 13.2288V15.833H0.166504V13.2288C0.166504 11.2153 3.66442 9.58301 7.97901 9.58301ZM14.7498 13.2288C14.7498 11.7913 11.7186 10.6247 7.97901 10.6247C4.23942 10.6247 1.20817 11.7913 1.20817 13.2288V14.7913H14.7498V13.2288ZM7.97901 0.208008C8.94594 0.208008 9.87327 0.592122 10.557 1.27585C11.2407 1.95957 11.6248 2.88691 11.6248 3.85384C11.6248 4.82078 11.2407 5.74811 10.557 6.43183C9.87327 7.11556 8.94594 7.49967 7.97901 7.49967C7.01207 7.49967 6.08474 7.11556 5.40101 6.43183C4.71729 5.74811 4.33317 4.82078 4.33317 3.85384C4.33317 2.88691 4.71729 1.95957 5.40101 1.27585C6.08474 0.592122 7.01207 0.208008 7.97901 0.208008ZM7.97901 1.24967C7.28834 1.24967 6.62596 1.52404 6.13758 2.01242C5.64921 2.50079 5.37484 3.16317 5.37484 3.85384C5.37484 4.54451 5.64921 5.20689 6.13758 5.69527C6.62596 6.18364 7.28834 6.45801 7.97901 6.45801C8.66967 6.45801 9.33206 6.18364 9.82043 5.69527C10.3088 5.20689 10.5832 4.54451 10.5832 3.85384C10.5832 3.16317 10.3088 2.50079 9.82043 2.01242C9.33206 1.52404 8.66967 1.24967 7.97901 1.24967Z" fill="white"/>
</svg>
