<svg width="35" height="35" viewBox="0 0 35 35" fill="none" xmlns="http://www.w3.org/2000/svg">
<path d="M16.771 20.417C22.8114 20.417 27.7085 22.7022 27.7085 25.5212V29.167H5.8335V25.5212C5.8335 22.7022 10.7306 20.417 16.771 20.417ZM26.2502 25.5212C26.2502 23.5087 22.0064 21.8753 16.771 21.8753C11.5356 21.8753 7.29183 23.5087 7.29183 25.5212V27.7087H26.2502V25.5212ZM16.771 7.29199C18.1247 7.29199 19.423 7.82975 20.3802 8.78697C21.3374 9.74418 21.8752 11.0424 21.8752 12.3962C21.8752 13.7499 21.3374 15.0481 20.3802 16.0053C19.423 16.9626 18.1247 17.5003 16.771 17.5003C15.4173 17.5003 14.119 16.9626 13.1618 16.0053C12.2046 15.0481 11.6668 13.7499 11.6668 12.3962C11.6668 11.0424 12.2046 9.74418 13.1618 8.78697C14.119 7.82975 15.4173 7.29199 16.771 7.29199ZM16.771 8.75033C15.8041 8.75033 14.8767 9.13444 14.193 9.81817C13.5093 10.5019 13.1252 11.4292 13.1252 12.3962C13.1252 13.3631 13.5093 14.2904 14.193 14.9742C14.8767 15.6579 15.8041 16.042 16.771 16.042C17.7379 16.042 18.6653 15.6579 19.349 14.9742C20.0327 14.2904 20.4168 13.3631 20.4168 12.3962C20.4168 11.4292 20.0327 10.5019 19.349 9.81817C18.6653 9.13444 17.7379 8.75033 16.771 8.75033Z" fill="black"/>
</svg>
