<svg width="27" height="25" viewBox="0 0 27 25" fill="none" xmlns="http://www.w3.org/2000/svg">
<path d="M6.25 2.08301L3.125 6.24967V20.833C3.125 21.3855 3.34449 21.9154 3.73519 22.3061C4.12589 22.6968 4.6558 22.9163 5.20833 22.9163H19.7917C20.3442 22.9163 20.8741 22.6968 21.2648 22.3061C21.6555 21.9154 21.875 21.3855 21.875 20.833V6.24967L18.75 2.08301H6.25Z" stroke="#25282B" stroke-width="1.5" stroke-linecap="round" stroke-linejoin="round"/>
<path d="M3.125 6.25H21.875" stroke="#25282B" stroke-width="1.5" stroke-linecap="round" stroke-linejoin="round"/>
<path d="M16.6668 10.417C16.6668 11.5221 16.2278 12.5819 15.4464 13.3633C14.665 14.1447 13.6052 14.5837 12.5002 14.5837C11.3951 14.5837 10.3353 14.1447 9.55388 13.3633C8.77248 12.5819 8.3335 11.5221 8.3335 10.417" stroke="" stroke-width="1.5" stroke-linecap="round" stroke-linejoin="round"/>
<circle cx="20.5" cy="7.5" r="6.5" fill="#FFC813"/>
<path d="M20.4908 3.201C20.9602 3.201 21.3598 3.289 21.6898 3.465C22.0272 3.63367 22.2838 3.84267 22.4598 4.092C22.6358 4.34133 22.7752 4.66767 22.8778 5.071C22.9805 5.467 23.0428 5.82633 23.0648 6.149C23.0868 6.46433 23.0978 6.84567 23.0978 7.293C23.0978 7.70367 23.0795 8.074 23.0428 8.404C23.0135 8.734 22.9438 9.07867 22.8338 9.438C22.7312 9.79733 22.5882 10.098 22.4048 10.34C22.2215 10.5747 21.9722 10.769 21.6568 10.923C21.3415 11.077 20.9675 11.154 20.5348 11.154C20.0802 11.154 19.6842 11.077 19.3468 10.923C19.0168 10.7617 18.7602 10.5637 18.5768 10.329C18.3935 10.0943 18.2468 9.79733 18.1368 9.438C18.0342 9.07133 17.9682 8.72667 17.9388 8.404C17.9095 8.074 17.8948 7.69633 17.8948 7.271C17.8948 6.90433 17.9022 6.58533 17.9168 6.314C17.9388 6.04267 17.9755 5.73833 18.0268 5.401C18.0855 5.05633 18.1735 4.76667 18.2908 4.532C18.4082 4.29 18.5585 4.06267 18.7418 3.85C18.9252 3.63733 19.1635 3.476 19.4568 3.366C19.7575 3.256 20.1022 3.201 20.4908 3.201ZM21.0958 4.169C20.9198 4.081 20.7182 4.037 20.4908 4.037C20.2635 4.037 20.0618 4.081 19.8858 4.169C19.7098 4.24967 19.5668 4.345 19.4568 4.455C19.3468 4.565 19.2515 4.73 19.1708 4.95C19.0902 5.16267 19.0315 5.34233 18.9948 5.489C18.9655 5.63567 18.9398 5.84833 18.9178 6.127C18.8958 6.39833 18.8848 6.59267 18.8848 6.71C18.8848 6.82 18.8848 7.007 18.8848 7.271C18.8848 7.52767 18.8885 7.74033 18.8958 7.909C18.9032 8.07767 18.9215 8.29767 18.9508 8.569C18.9802 8.84033 19.0315 9.06767 19.1048 9.251C19.1782 9.427 19.2698 9.60667 19.3798 9.79C19.4898 9.966 19.6402 10.1017 19.8308 10.197C20.0288 10.285 20.2562 10.329 20.5128 10.329C20.7328 10.329 20.9272 10.2887 21.0958 10.208C21.2718 10.1273 21.4148 10.032 21.5248 9.922C21.6348 9.812 21.7265 9.658 21.7998 9.46C21.8805 9.25467 21.9392 9.07867 21.9758 8.932C22.0125 8.778 22.0382 8.57633 22.0528 8.327C22.0748 8.07033 22.0858 7.88333 22.0858 7.766C22.0932 7.64133 22.0968 7.46167 22.0968 7.227C22.0968 6.97033 22.0968 6.787 22.0968 6.677C22.0968 6.567 22.0858 6.37633 22.0638 6.105C22.0418 5.83367 22.0125 5.62467 21.9758 5.478C21.9465 5.33133 21.8915 5.15167 21.8108 4.939C21.7302 4.72633 21.6348 4.565 21.5248 4.455C21.4148 4.345 21.2718 4.24967 21.0958 4.169Z" fill="black"/>
</svg>
