<svg width="19" height="17" viewBox="0 0 19 17" fill="none" xmlns="http://www.w3.org/2000/svg">
<path d="M4.39805 1.41699L2.19897 4.25033V14.167C2.19897 14.5427 2.35343 14.9031 2.62837 15.1687C2.90331 15.4344 3.2762 15.5837 3.66502 15.5837H13.9274C14.3162 15.5837 14.6891 15.4344 14.964 15.1687C15.239 14.9031 15.3934 14.5427 15.3934 14.167V4.25033L13.1943 1.41699H4.39805Z" stroke="white" stroke-width="1.5" stroke-linecap="round" stroke-linejoin="round"/>
<path d="M2.19897 4.25H15.3934" stroke="white" stroke-width="1.5" stroke-linecap="round" stroke-linejoin="round"/>
<path d="M11.7285 7.08301C11.7285 7.83445 11.4195 8.55512 10.8697 9.08648C10.3198 9.61783 9.574 9.91634 8.79636 9.91634C8.01872 9.91634 7.27292 9.61783 6.72305 9.08648C6.17317 8.55512 5.86426 7.83445 5.86426 7.08301" stroke="white" stroke-width="1.5" stroke-linecap="round" stroke-linejoin="round"/>
<ellipse cx="14.4259" cy="5.09969" rx="4.57407" ry="4.42" fill="#FFC813"/>
<path d="M14.4192 2.36804C14.7605 2.36804 15.0512 2.43204 15.2912 2.56004C15.5365 2.68271 15.7232 2.83471 15.8512 3.01604C15.9792 3.19737 16.0805 3.43471 16.1552 3.72804C16.2299 4.01604 16.2752 4.27737 16.2912 4.51204C16.3072 4.74137 16.3152 5.01871 16.3152 5.34404C16.3152 5.64271 16.3019 5.91204 16.2752 6.15204C16.2539 6.39204 16.2032 6.64271 16.1232 6.90404C16.0485 7.16537 15.9445 7.38404 15.8112 7.56004C15.6779 7.73071 15.4965 7.87204 15.2672 7.98404C15.0379 8.09604 14.7659 8.15204 14.4512 8.15204C14.1205 8.15204 13.8325 8.09604 13.5872 7.98404C13.3472 7.86671 13.1605 7.72271 13.0272 7.55204C12.8939 7.38137 12.7872 7.16537 12.7072 6.90404C12.6325 6.63737 12.5845 6.38671 12.5632 6.15204C12.5419 5.91204 12.5312 5.63737 12.5312 5.32804C12.5312 5.06137 12.5365 4.82937 12.5472 4.63204C12.5632 4.43471 12.5899 4.21337 12.6272 3.96804C12.6699 3.71737 12.7339 3.50671 12.8192 3.33604C12.9045 3.16004 13.0139 2.99471 13.1472 2.84004C13.2805 2.68537 13.4539 2.56804 13.6672 2.48804C13.8859 2.40804 14.1365 2.36804 14.4192 2.36804ZM14.8592 3.07204C14.7312 3.00804 14.5845 2.97604 14.4192 2.97604C14.2539 2.97604 14.1072 3.00804 13.9792 3.07204C13.8512 3.13071 13.7472 3.20004 13.6672 3.28004C13.5872 3.36004 13.5179 3.48004 13.4592 3.64004C13.4005 3.79471 13.3579 3.92537 13.3312 4.03204C13.3099 4.13871 13.2912 4.29337 13.2752 4.49604C13.2592 4.69337 13.2512 4.83471 13.2512 4.92004C13.2512 5.00004 13.2512 5.13604 13.2512 5.32804C13.2512 5.51471 13.2539 5.66937 13.2592 5.79204C13.2645 5.91471 13.2779 6.07471 13.2992 6.27204C13.3205 6.46937 13.3579 6.63471 13.4112 6.76804C13.4645 6.89604 13.5312 7.02671 13.6112 7.16004C13.6912 7.28804 13.8005 7.38671 13.9392 7.45604C14.0832 7.52004 14.2485 7.55204 14.4352 7.55204C14.5952 7.55204 14.7365 7.52271 14.8592 7.46404C14.9872 7.40537 15.0912 7.33604 15.1712 7.25604C15.2512 7.17604 15.3179 7.06404 15.3712 6.92004C15.4299 6.77071 15.4725 6.64271 15.4992 6.53604C15.5259 6.42404 15.5445 6.27737 15.5552 6.09604C15.5712 5.90937 15.5792 5.77337 15.5792 5.68804C15.5845 5.59737 15.5872 5.46671 15.5872 5.29604C15.5872 5.10937 15.5872 4.97604 15.5872 4.89604C15.5872 4.81604 15.5792 4.67737 15.5632 4.48004C15.5472 4.28271 15.5259 4.13071 15.4992 4.02404C15.4779 3.91737 15.4379 3.78671 15.3792 3.63204C15.3205 3.47737 15.2512 3.36004 15.1712 3.28004C15.0912 3.20004 14.9872 3.13071 14.8592 3.07204Z" fill="black"/>
</svg>
