<svg width="27" height="27" viewBox="0 0 27 27" fill="none" xmlns="http://www.w3.org/2000/svg">
<path d="M23.012 1H3.98804C3.39813 1 2.82141 1.17462 2.33057 1.50184C2.00233 1.72067 1.72067 2.00233 1.50184 2.33057C1.17462 2.82141 1 3.39813 1 3.98804V23.012C1 23.6019 1.17462 24.1786 1.50184 24.6694C1.72067 24.9977 2.00233 25.2793 2.33057 25.4982C2.82141 25.8254 3.39813 26 3.98804 26H23.012C23.6019 26 24.1786 25.8254 24.6694 25.4982C24.9977 25.2793 25.2793 24.9977 25.4982 24.6694C25.8254 24.1786 26 23.6019 26 23.012V20.1667V7.25V3.98804C26 3.39813 25.8254 2.82141 25.4982 2.33057C25.2793 2.00233 24.9977 1.72067 24.6694 1.50184C24.1786 1.17462 23.6019 1 23.012 1Z" stroke="black"/>
<circle cx="6.8335" cy="7.66699" r="1.25" fill="black"/>
<circle cx="6.8335" cy="13.5" r="1.25" fill="black"/>
<circle cx="6.8335" cy="19.333" r="1.25" fill="black"/>
<rect x="11.4165" y="18.917" width="10" height="1.66667" rx="0.833333" fill="black"/>
<rect x="11.4165" y="13.083" width="10" height="1.66667" rx="0.833333" fill="black"/>
<rect x="11.4165" y="7.25" width="10" height="1.66667" rx="0.833333" fill="black"/>
</svg>
