<svg width="34" height="34" viewBox="0 0 34 34" fill="none" xmlns="http://www.w3.org/2000/svg">
<g clip-path="url(#clip0)">
<path d="M18.7207 16.3228L2.27599 32.7675C1.48987 32.0239 1.06494 31.0041 1.06494 29.8992V4.10607C1.06494 2.98001 1.51112 1.96018 2.31848 1.19531L18.7207 16.3228Z" fill="#2196F3"/>
<path d="M32.9351 17.0027C32.9351 18.49 32.1277 19.8073 30.7892 20.5509L26.1149 23.1429L20.3147 17.7888L18.7212 16.3228L24.8614 10.1826L30.7892 13.4546C32.1277 14.1982 32.9351 15.5155 32.9351 17.0027Z" fill="#FFC107"/>
<path d="M18.7211 16.323L2.31885 1.19554C2.53131 0.983078 2.80752 0.79186 3.08372 0.621889C4.42224 -0.185476 6.03697 -0.206722 7.41799 0.55815L24.8613 10.1828L18.7211 16.323Z" fill="#4CAF50"/>
<path d="M26.1144 23.1433L7.41752 33.4479C6.75888 33.8303 6.01525 34.0003 5.29287 34.0003C4.528 34.0003 3.76313 33.8091 3.08324 33.3841C2.78579 33.2142 2.50959 33.0017 2.27588 32.768L18.7206 16.3232L20.3141 17.7892L26.1144 23.1433Z" fill="#F44336"/>
</g>
<defs>
<clipPath id="clip0">
<rect width="34" height="34" fill="white"/>
</clipPath>
</defs>
</svg>
